<?xml version="1.0" encoding="UTF-8" standalone="no"?>
<svg
   xmlns:dc="http://purl.org/dc/elements/1.1/"
   xmlns:cc="http://creativecommons.org/ns#"
   xmlns:rdf="http://www.w3.org/1999/02/22-rdf-syntax-ns#"
   xmlns:svg="http://www.w3.org/2000/svg"
   xmlns="http://www.w3.org/2000/svg"
   xmlns:sodipodi="http://sodipodi.sourceforge.net/DTD/sodipodi-0.dtd"
   xmlns:inkscape="http://www.inkscape.org/namespaces/inkscape"
   width="24"
   height="3912"
   viewBox="0 0 24 3912"
   id="svg2"
   version="1.1"
   inkscape:version="0.91 r13725"
   sodipodi:docname="svg-sprite.svg">
  <metadata
     id="metadata505">
    <rdf:RDF>
      <cc:Work
         rdf:about="">
        <dc:format>image/svg+xml</dc:format>
        <dc:type
           rdf:resource="http://purl.org/dc/dcmitype/StillImage" />
      </cc:Work>
    </rdf:RDF>
  </metadata>
  <defs
     id="defs503" />
  <sodipodi:namedview
     pagecolor="#ffffff"
     bordercolor="#666666"
     borderopacity="1"
     objecttolerance="10"
     gridtolerance="10"
     guidetolerance="10"
     inkscape:pageopacity="0"
     inkscape:pageshadow="2"
     inkscape:window-width="957"
     inkscape:window-height="1029"
     id="namedview501"
     showgrid="false"
     inkscape:zoom="10.920389"
     inkscape:cx="7.2176796"
     inkscape:cy="3673.7095"
     inkscape:window-x="960"
     inkscape:window-y="24"
     inkscape:window-maximized="0"
     inkscape:current-layer="svg2" />
  <path
     id="path115"
     d="M 9,16.17 4.83,12 3.41,13.41 9,19 21,7 19.59,5.59 Z"
     inkscape:connector-curvature="0"
     style="fill:#ffffff" />
  <path
     id="path307"
     d="m 19.43,60.98 c 0.04,-0.32 0.07,-0.64 0.07,-0.98 0,-0.34 -0.03,-0.66 -0.07,-0.98 l 2.11,-1.65 c 0.19,-0.15 0.24,-0.42 0.12,-0.64 l -2,-3.46 c -0.12,-0.22 -0.39,-0.3 -0.61,-0.22 l -2.49,1 c -0.52,-0.4 -1.08,-0.73 -1.69,-0.98 L 14.49,50.42 C 14.46,50.18 14.25,50 14,50 l -4,0 c -0.25,0 -0.46,0.18 -0.49,0.42 l -0.38,2.65 c -0.61,0.25 -1.17,0.59 -1.69,0.98 l -2.49,-1 c -0.23,-0.09 -0.49,0 -0.61,0.22 l -2,3.46 c -0.13,0.22 -0.07,0.49 0.12,0.64 l 2.11,1.65 C 4.53,59.34 4.5,59.67 4.5,60 c 0,0.33 0.03,0.66 0.07,0.98 l -2.11,1.65 c -0.19,0.15 -0.24,0.42 -0.12,0.64 l 2,3.46 c 0.12,0.22 0.39,0.3 0.61,0.22 l 2.49,-1 c 0.52,0.4 1.08,0.73 1.69,0.98 l 0.38,2.65 C 9.54,69.82 9.75,70 10,70 l 4,0 c 0.25,0 0.46,-0.18 0.49,-0.42 l 0.38,-2.65 c 0.61,-0.25 1.17,-0.59 1.69,-0.98 l 2.49,1 c 0.23,0.09 0.49,0 0.61,-0.22 l 2,-3.46 c 0.12,-0.22 0.07,-0.49 -0.12,-0.64 L 19.43,60.98 Z M 12,63.5 c -1.93,0 -3.5,-1.57 -3.5,-3.5 0,-1.93 1.57,-3.5 3.5,-3.5 1.93,0 3.5,1.57 3.5,3.5 0,1.93 -1.57,3.5 -3.5,3.5 z"
     inkscape:connector-curvature="0"
     style="fill:#ffffff" />
  <path
     id="path94"
     d="M 12,26 C 6.48,26 2,30.48 2,36 2,41.52 6.48,46 12,46 17.52,46 22,41.52 22,36 22,30.48 17.52,26 12,26 Z M 10,41 5,36 6.41,34.59 10,38.17 17.59,30.58 19,32 10,41 Z"
     inkscape:connector-curvature="0"
     style="fill:#ffffff" />
  <path
     id="path8"
     d="M 20,83 7.83,83 13.42,77.41 12,76 4,84 12,92 13.41,90.59 7.83,85 20,85 20,83 Z"
     inkscape:connector-curvature="0"
     style="fill:#ffffff" />
  <path
     id="path50"
     d="m 3,114 18,0 0,-2 -18,0 0,2 z m 0,-5 18,0 0,-2 -18,0 0,2 z m 0,-7 0,2 18,0 0,-2 -18,0 z"
     inkscape:connector-curvature="0"
     style="fill:#ffffff" />
  <path
     id="path304"
     d="m 15.5,134 -0.79,0 -0.28,-0.27 C 15.41,132.59 16,131.11 16,129.5 16,125.91 13.09,123 9.5,123 5.91,123 3,125.91 3,129.5 c 0,3.59 2.91,6.5 6.5,6.5 1.61,0 3.09,-0.59 4.23,-1.57 l 0.27,0.28 0,0.79 5,4.99 1.49,-1.49 -4.99,-5 z m -6,0 C 7.01,134 5,131.99 5,129.5 5,127.01 7.01,125 9.5,125 c 2.49,0 4.5,2.01 4.5,4.5 0,2.49 -2.01,4.5 -4.5,4.5 z"
     inkscape:connector-curvature="0"
     style="fill:#ffffff" />
  <path
     id="path301"
     d="M 11.99,146 C 6.47,146 2,150.48 2,156 c 0,5.52 4.47,10 9.99,10 5.53,0 10.01,-4.48 10.01,-10 0,-5.52 -4.48,-10 -10.01,-10 z M 12,164 c -4.42,0 -8,-3.58 -8,-8 0,-4.42 3.58,-8 8,-8 4.42,0 8,3.58 8,8 0,4.42 -3.58,8 -8,8 z m 0.5,-13 -1.5,0 0,6 5.25,3.15 0.75,-1.23 -4.5,-2.67 z"
     inkscape:connector-curvature="0"
     style="fill:#ffffff;fill-opacity:0.9" />
  <path
     style="fill:#ffffff"
     id="path298"
     d="m 12,194 c -3.87,0 -7,3.13 -7,7 0,5.25 7,13 7,13 0,0 7,-7.75 7,-13 0,-3.87 -3.13,-7 -7,-7 z m 0,9.5 c -1.38,0 -2.5,-1.12 -2.5,-2.5 0,-1.38 1.12,-2.5 2.5,-2.5 1.38,0 2.5,1.12 2.5,2.5 0,1.38 -1.12,2.5 -2.5,2.5 z"
     inkscape:connector-curvature="0" />
  <path
     id="path292"
     d="m 1,189 22,0 -11,-19 -11,19 z m 12,-3 -2,0 0,-2 2,0 0,2 z m 0,-4 -2,0 0,-4 2,0 0,4 z"
     inkscape:connector-curvature="0"
     style="fill:#ffffff" />
  <path
     id="path5"
     d="m 19,229 -6,0 0,6 -2,0 0,-6 -6,0 0,-2 6,0 0,-6 2,0 0,6 6,0 0,2 z"
     inkscape:connector-curvature="0"
     style="fill:#ffffff" />
  <path
     id="path26"
     d="M 19,246.41 17.59,245 12,250.59 6.41,245 5,246.41 10.59,252 5,257.59 6.41,259 12,253.41 17.59,259 19,257.59 13.41,252 Z"
     inkscape:connector-curvature="0"
     style="fill:#ffffff" />
</svg>
